<svg width="15" height="15" viewBox="0 0 15 15" fill="none" xmlns="http://www.w3.org/2000/svg">
<path fill-rule="evenodd" clip-rule="evenodd" d="M7.50061 8.03105C7.41986 8.03105 7.3431 7.99172 7.29617 7.92598L4.6945 4.28976C4.66777 4.25219 4.65189 4.20798 4.64859 4.16198C4.6453 4.11599 4.65472 4.06997 4.67583 4.02897C4.69694 3.98797 4.72892 3.95357 4.76827 3.92952C4.80762 3.90548 4.85283 3.89273 4.89894 3.89266H6.1157V0.62694C6.1157 0.48729 6.22799 0.375 6.36707 0.375H8.61781C8.75651 0.375 8.86918 0.48729 8.86918 0.62694V3.89266H10.085C10.1312 3.89252 10.1765 3.90516 10.216 3.92916C10.2554 3.95317 10.2875 3.98762 10.3086 4.0287C10.3297 4.06973 10.3391 4.11576 10.3359 4.16178C10.3327 4.20779 10.317 4.25206 10.2904 4.28976L7.70562 7.92503C7.65812 7.99172 7.5825 8.03105 7.50118 8.03105H7.50061ZM10.724 7.42773H14.0499C14.5665 7.42773 14.9845 7.84573 14.9845 8.36234V13.6926C14.9845 13.8153 14.9603 13.9368 14.9133 14.0502C14.8664 14.1635 14.7975 14.2665 14.7107 14.3533C14.6239 14.44 14.5209 14.5088 14.4075 14.5558C14.2942 14.6027 14.1726 14.6269 14.0499 14.6268H0.93461C0.686817 14.6268 0.449182 14.5284 0.273931 14.3532C0.0986793 14.178 0.000151146 13.9404 1.92627e-08 13.6926V8.36234C-2.49022e-05 8.2396 0.0241323 8.11806 0.0710921 8.00465C0.118052 7.89125 0.186894 7.78821 0.273685 7.70142C0.360477 7.61463 0.463517 7.54579 0.576921 7.49883C0.690324 7.45187 0.811868 7.42771 0.93461 7.42773H4.26056C4.45821 7.42763 4.65079 7.49022 4.81061 7.60651C4.97043 7.72279 5.08924 7.88678 5.14995 8.07487C5.30873 8.57115 5.6213 9.00403 6.04243 9.31087C6.46356 9.61771 6.9714 9.78259 7.49246 9.78164C8.0135 9.78253 8.52132 9.61763 8.94244 9.3108C9.36356 9.00397 9.67614 8.57112 9.83497 8.07487C9.89561 7.88681 10.0143 7.72284 10.1741 7.60655C10.3339 7.49026 10.5264 7.42765 10.724 7.42773Z" fill="#B824DC"/>
</svg>
